# xmcd CD database file
#
# Track frame offsets:
#	150
#	27684
#	58735
#	90908
#	115546
#	164779
#	181585
#	207930
#
# Disc length: 3621 seconds
#
# Revision: 0
# Processed by: cddbd v1.5.1PL2 Copyright (c) Steve Scherf et al.
# Submitted via: CDex 1.51
#
DISCID=640e2308
DTITLE=HipBones - 4
DYEAR=2006
DGENRE=Jazz
TTITLE0=Scram
TTITLE1=Sharkfin
TTITLE2=Heart-Shaped Box
TTITLE3=Adventures with Bob
TTITLE4=Walking on the Moon
TTITLE5=Country Chicken
TTITLE6=Southern Comfort
TTITLE7=Richmond, CA
EXTD=YEAR: 2006
EXTT0=
EXTT1=
EXTT2=
EXTT3=
EXTT4=
EXTT5=
EXTT6=
EXTT7=
PLAYORDER=
